<?xml version="1.0" encoding="UTF-8"?>
<svg xmlns="http://www.w3.org/2000/svg" xmlns:xlink="http://www.w3.org/1999/xlink" width="0" height="0">
<defs>
<symbol viewBox="0 0 24 24" fill="none" stroke="currentColor" stroke-width="2" stroke-linecap="round" stroke-linejoin="round" class="lucide lucide-zap-icon lucide-zap" id="Zap"><path d="M4 14a1 1 0 0 1-.78-1.63l9.9-10.2a.5.5 0 0 1 .86.46l-1.92 6.02A1 1 0 0 0 13 10h7a1 1 0 0 1 .78 1.63l-9.9 10.2a.5.5 0 0 1-.86-.46l1.92-6.02A1 1 0 0 0 11 14z"></path></symbol>
<symbol viewBox="0 0 24 24" fill="none" stroke="currentColor" stroke-width="2" stroke-linecap="round" stroke-linejoin="round" class="lucide lucide-x-icon lucide-x" id="X"><path d="M18 6 6 18"></path><path d="m6 6 12 12"></path></symbol>
<symbol viewBox="0 0 24 24" fill="none" stroke="currentColor" stroke-width="2" stroke-linecap="round" stroke-linejoin="round" class="lucide lucide-triangle-alert-icon lucide-triangle-alert" id="TriangleAlert"><path d="m21.73 18-8-14a2 2 0 0 0-3.48 0l-8 14A2 2 0 0 0 4 21h16a2 2 0 0 0 1.73-3"></path><path d="M12 9v4"></path><path d="M12 17h.01"></path></symbol>
<symbol viewBox="0 0 24 24" fill="none" stroke="currentColor" stroke-width="2" stroke-linecap="round" stroke-linejoin="round" class="lucide lucide-trash2-icon lucide-trash-2" id="Trash2"><path d="M10 11v6"></path><path d="M14 11v6"></path><path d="M19 6v14a2 2 0 0 1-2 2H7a2 2 0 0 1-2-2V6"></path><path d="M3 6h18"></path><path d="M8 6V4a2 2 0 0 1 2-2h4a2 2 0 0 1 2 2v2"></path></symbol>
<symbol viewBox="0 0 24 24" fill="none" stroke="currentColor" stroke-width="2" stroke-linecap="round" stroke-linejoin="round" class="lucide lucide-sun-icon lucide-sun" id="Sun"><circle cx="12" cy="12" r="4"></circle><path d="M12 2v2"></path><path d="M12 20v2"></path><path d="m4.93 4.93 1.41 1.41"></path><path d="m17.66 17.66 1.41 1.41"></path><path d="M2 12h2"></path><path d="M20 12h2"></path><path d="m6.34 17.66-1.41 1.41"></path><path d="m19.07 4.93-1.41 1.41"></path></symbol>
<symbol viewBox="0 0 24 24" fill="none" stroke="currentColor" stroke-width="2" stroke-linecap="round" stroke-linejoin="round" class="lucide lucide-sun-moon-icon lucide-sun-moon" id="SunMoon"><path d="M12 2v2"></path><path d="M14.837 16.385a6 6 0 1 1-7.223-7.222c.624-.147.97.66.715 1.248a4 4 0 0 0 5.26 5.259c.589-.255 1.396.09 1.248.715"></path><path d="M16 12a4 4 0 0 0-4-4"></path><path d="m19 5-1.256 1.256"></path><path d="M20 12h2"></path></symbol>
<symbol viewBox="0 0 24 24" fill="none" stroke="currentColor" stroke-width="2" stroke-linecap="round" stroke-linejoin="round" class="lucide lucide-shield-check-icon lucide-shield-check" id="ShieldCheck"><path d="M20 13c0 5-3.5 7.5-7.66 8.95a1 1 0 0 1-.67-.01C7.5 20.5 4 18 4 13V6a1 1 0 0 1 1-1c2 0 4.5-1.2 6.24-2.72a1.17 1.17 0 0 1 1.52 0C14.51 3.81 17 5 19 5a1 1 0 0 1 1 1z"></path><path d="m9 12 2 2 4-4"></path></symbol>
<symbol viewBox="0 0 24 24" fill="none" stroke="currentColor" stroke-width="2" stroke-linecap="round" stroke-linejoin="round" class="lucide lucide-search-icon lucide-search" id="Search"><path d="m21 21-4.34-4.34"></path><circle cx="11" cy="11" r="8"></circle></symbol>
<symbol viewBox="0 0 24 24" fill="none" stroke="currentColor" stroke-width="2" stroke-linecap="round" stroke-linejoin="round" class="lucide lucide-rocket-icon lucide-rocket" id="Rocket"><path d="M4.5 16.5c-1.5 1.26-2 5-2 5s3.74-.5 5-2c.71-.84.7-2.13-.09-2.91a2.18 2.18 0 0 0-2.91-.09z"></path><path d="m12 15-3-3a22 22 0 0 1 2-3.95A12.88 12.88 0 0 1 22 2c0 2.72-.78 7.5-6 11a22.35 22.35 0 0 1-4 2z"></path><path d="M9 12H4s.55-3.03 2-4c1.62-1.08 5 0 5 0"></path><path d="M12 15v5s3.03-.55 4-2c1.08-1.62 0-5 0-5"></path></symbol>
<symbol viewBox="0 0 24 24" fill="none" stroke="currentColor" stroke-width="2" stroke-linecap="round" stroke-linejoin="round" class="lucide lucide-pilcrow-icon lucide-pilcrow" id="Pilcrow"><path d="M13 4v16"></path><path d="M17 4v16"></path><path d="M19 4H9.5a4.5 4.5 0 0 0 0 9H13"></path></symbol>
<symbol viewBox="0 0 24 24" fill="none" stroke="currentColor" stroke-width="2" stroke-linecap="round" stroke-linejoin="round" class="lucide lucide-palette-icon lucide-palette" id="Palette"><path d="M12 22a1 1 0 0 1 0-20 10 9 0 0 1 10 9 5 5 0 0 1-5 5h-2.25a1.75 1.75 0 0 0-1.4 2.8l.3.4a1.75 1.75 0 0 1-1.4 2.8z"></path><circle cx="13.5" cy="6.5" r=".5" fill="currentColor"></circle><circle cx="17.5" cy="10.5" r=".5" fill="currentColor"></circle><circle cx="6.5" cy="12.5" r=".5" fill="currentColor"></circle><circle cx="8.5" cy="7.5" r=".5" fill="currentColor"></circle></symbol>
<symbol viewBox="0 0 24 24" fill="none" stroke="currentColor" stroke-width="2" stroke-linecap="round" stroke-linejoin="round" class="lucide lucide-moon-icon lucide-moon" id="Moon"><path d="M12 3a6 6 0 0 0 9 9 9 9 0 1 1-9-9Z"></path></symbol>
<symbol viewBox="0 0 24 24" fill="none" stroke="currentColor" stroke-width="2" stroke-linecap="round" stroke-linejoin="round" class="lucide lucide-menu-icon lucide-menu" id="Menu"><path d="M4 12h16"></path><path d="M4 18h16"></path><path d="M4 6h16"></path></symbol>
<symbol viewBox="0 0 24 24" fill="none" stroke="currentColor" stroke-width="2" stroke-linecap="round" stroke-linejoin="round" class="lucide lucide-info-icon lucide-info" id="Info"><circle cx="12" cy="12" r="10"></circle><path d="M12 16v-4"></path><path d="M12 8h.01"></path></symbol>
<symbol viewBox="0 0 24 24" fill="none" stroke="currentColor" stroke-width="2" stroke-linecap="round" stroke-linejoin="round" class="lucide lucide-hash-icon lucide-hash" id="Hash"><line x1="4" x2="20" y1="9" y2="9"></line><line x1="4" x2="20" y1="15" y2="15"></line><line x1="10" x2="8" y1="3" y2="21"></line><line x1="16" x2="14" y1="3" y2="21"></line></symbol>
<symbol viewBox="0 0 24 24" fill="none" stroke="currentColor" stroke-width="2" stroke-linecap="round" stroke-linejoin="round" class="lucide lucide-github-icon lucide-github" id="Github"><path d="M15 22v-4a4.8 4.8 0 0 0-1-3.5c3 0 6-2 6-5.5.08-1.25-.27-2.48-1-3.5.28-1.15.28-2.35 0-3.5 0 0-1 0-3 1.5-2.64-.5-5.36-.5-8 0C6 2 5 2 5 2c-.3 1.15-.3 2.35 0 3.5A5.403 5.403 0 0 0 4 9c0 3.5 3 5.5 6 5.5-.39.49-.68 1.05-.85 1.65-.17.6-.22 1.23-.15 1.85v4"></path><path d="M9 18c-4.51 2-5-2-7-2"></path></symbol>
<symbol viewBox="0 0 24 24" fill="none" stroke="currentColor" stroke-width="2" stroke-linecap="round" stroke-linejoin="round" class="lucide lucide-ghost" id="Ghost"><path d="M9 10h.01"></path><path d="M15 10h.01"></path><path d="M12 2a8 8 0 0 0-8 8v12l3-3 2.5 2.5L12 19l2.5 2.5L17 19l3 3V10a8 8 0 0 0-8-8z"></path></symbol>
<symbol viewBox="0 0 24 24" fill="none" stroke="currentColor" stroke-width="2" stroke-linecap="round" stroke-linejoin="round" class="lucide lucide-file-text-icon lucide-file-text" id="FileText"><path d="M15 2H6a2 2 0 0 0-2 2v16a2 2 0 0 0 2 2h12a2 2 0 0 0 2-2V7Z"></path><path d="M14 2v4a2 2 0 0 0 2 2h4"></path><path d="M10 9H8"></path><path d="M16 13H8"></path><path d="M16 17H8"></path></symbol>
<symbol viewBox="0 0 24 24" fill="none" stroke="currentColor" stroke-width="2" stroke-linecap="round" stroke-linejoin="round" class="lucide lucide-code-icon lucide-code" id="Code"><path d="m16 18 6-6-6-6"></path><path d="m8 6-6 6 6 6"></path></symbol>
<symbol viewBox="0 0 24 24" fill="none" stroke="currentColor" stroke-width="2" stroke-linecap="round" stroke-linejoin="round" class="lucide lucide-clock-icon lucide-clock" id="Clock"><path d="M12 6v6l4 2"></path><circle cx="12" cy="12" r="10"></circle></symbol>
<symbol viewBox="0 0 24 24" fill="none" stroke="currentColor" stroke-width="2" stroke-linecap="round" stroke-linejoin="round" class="lucide lucide-clipboard-copy-icon lucide-clipboard-copy" id="ClipboardCopy"><rect width="8" height="4" x="8" y="2" rx="1" ry="1"></rect><path d="M8 4H6a2 2 0 0 0-2 2v14a2 2 0 0 0 2 2h12a2 2 0 0 0 2-2v-2"></path><path d="M16 4h2a2 2 0 0 1 2 2v4"></path><path d="M21 14H11"></path><path d="m15 10-4 4 4 4"></path></symbol>
<symbol viewBox="0 0 24 24" fill="none" stroke="currentColor" stroke-width="2" stroke-linecap="round" stroke-linejoin="round" class="lucide lucide-clipboard-check-icon lucide-clipboard-check" id="ClipboardCheck"><rect width="8" height="4" x="8" y="2" rx="1" ry="1"></rect><path d="M16 4h2a2 2 0 0 1 2 2v14a2 2 0 0 1-2 2H6a2 2 0 0 1-2-2V6a2 2 0 0 1 2-2h2"></path><path d="m9 14 2 2 4-4"></path></symbol>
<symbol viewBox="0 0 24 24" fill="none" stroke="currentColor" stroke-width="2" stroke-linecap="round" stroke-linejoin="round" class="lucide lucide-chevron-right-icon lucide-chevron-right" id="ChevronRight"><path d="m9 18 6-6-6-6"></path></symbol>
<symbol viewBox="0 0 24 24" fill="none" stroke="currentColor" stroke-width="2" stroke-linecap="round" stroke-linejoin="round" class="lucide lucide-chevron-down-icon lucide-chevron-down" id="ChevronDown"><path d="m6 9 6 6 6-6"></path></symbol>
<symbol viewBox="0 0 24 24" fill="none" stroke="currentColor" stroke-width="2" stroke-linecap="round" stroke-linejoin="round" class="lucide lucide-bot-icon lucide-bot" id="Bot"><path d="M12 8V4H8"></path><rect width="16" height="12" x="4" y="8" rx="2"></rect><path d="M2 14h2"></path><path d="M20 14h2"></path><path d="M15 13v2"></path><path d="M9 13v2"></path></symbol>
<symbol viewBox="0 0 24 24" fill="none" stroke="currentColor" stroke-width="2" stroke-linecap="round" stroke-linejoin="round" class="lucide lucide-arrow-right-icon lucide-arrow-right" id="ArrowRight"><path d="M5 12h14"></path><path d="m12 5 7 7-7 7"></path></symbol>
<symbol viewBox="0 0 24 24" fill="none" stroke="currentColor" stroke-width="2" stroke-linecap="round" stroke-linejoin="round" class="lucide lucide-arrow-left-icon lucide-arrow-left" id="ArrowLeft"><path d="m12 19-7-7 7-7"></path><path d="M19 12H5"></path></symbol>
</defs>
</svg>